<?xml version="1.0" encoding="UTF-8"?>
<svg width="16px" height="32px" viewBox="0 0 16 32" version="1.1" xmlns="http://www.w3.org/2000/svg" xmlns:xlink="http://www.w3.org/1999/xlink">
    <!-- Generator: Sketch 48.1 (47250) - http://www.bohemiancoding.com/sketch -->
    <title>ob_logo_16x16</title>
    <desc>Created with Sketch.</desc>
    <defs></defs>
    <g id="Page-1" stroke="none" stroke-width="1" fill="none" fill-rule="evenodd">
        <g id="ob_logo_16x16">
            <path d="M10.0694688,30.4720634 C9.43410889,30.7382176 8.74453869,30.8710065 8.00018955,30.8710065 C7.25546131,30.8710065 6.56532247,30.7380255 5.9305312,30.4720634 C5.2955504,30.2053327 4.74188504,29.8380975 4.26915604,29.3680519 C3.79680614,28.8987749 3.42681135,28.3449436 3.15974032,27.7055969 C2.90119888,27.0887341 2.76889542,26.4209464 2.76017628,25.7043478 L4.01497417,25.7043478 C4.02824243,25.924958 4.07506042,26.1315398 4.15618632,26.325054 C4.25304459,26.5573865 4.38724352,26.7585876 4.55897266,26.9290416 C4.7303227,27.0994956 4.93181064,27.2330531 5.16210965,27.3291376 C5.39259821,27.4265674 5.64298915,27.474994 5.91366156,27.474994 C6.18414443,27.474994 6.43453537,27.4265674 6.66502393,27.3291376 C6.89532294,27.2330531 7.09681088,27.0994956 7.26816092,26.9290416 C7.43989006,26.7585876 7.57427854,26.5573865 7.67094726,26.325054 C7.73520353,26.1717031 7.77804104,26.0095124 7.79945979,25.8388662 L8.20167749,25.8388662 C8.22328579,26.0095124 8.26574421,26.1717031 8.33000047,26.325054 C8.42704829,26.5573865 8.56143676,26.7585876 8.73278681,26.9290416 C8.90451595,27.0994956 9.10543525,27.2330531 9.3363029,27.3291376 C9.56679145,27.4265674 9.81718239,27.474994 10.0874757,27.474994 C10.3581481,27.474994 10.6083495,27.4265674 10.8390276,27.3291376 C11.0695162,27.2330531 11.2704355,27.0994956 11.4421646,26.9290416 C11.6137042,26.7585876 11.7482822,26.5573865 11.84533,26.325054 C11.9258873,26.1315398 11.9727053,25.924958 11.9863527,25.7043478 L13.2407715,25.7043478 C13.2322419,26.4211386 13.0993698,27.0887341 12.841397,27.7055969 C12.5729991,28.3449436 12.2031939,28.8989671 11.7304649,29.3680519 C11.258115,29.8380975 10.7042601,30.2055249 10.0694688,30.4720634 Z M6.95730465,26.0195052 C6.89911387,26.1567139 6.81950434,26.2764353 6.71733877,26.3777084 C6.61574184,26.4791737 6.49613799,26.5583473 6.35890632,26.6156137 C6.22224328,26.6732645 6.07363882,26.7018977 5.91309293,26.7018977 C5.75235748,26.7018977 5.60375302,26.6732645 5.46690044,26.6156137 C5.32985831,26.5583473 5.21044401,26.4791737 5.1080889,26.3777084 C5.00649197,26.2764353 4.92669289,26.1565217 4.86926029,26.0195052 C4.81144861,25.8817199 4.78225845,25.7322123 4.78225845,25.5713668 C4.78225845,25.4112899 4.81125906,25.2615902 4.86926029,25.1236128 C4.92650334,24.9860197 5.00630242,24.8664905 5.1080889,24.7652174 C5.21044401,24.6645208 5.32966877,24.5851549 5.46690044,24.527312 C5.60356347,24.4700456 5.75216794,24.4414124 5.91309293,24.4414124 C6.07363882,24.4414124 6.22224328,24.4700456 6.35890632,24.527312 C6.49594844,24.5849628 6.61555229,24.6645208 6.71733877,24.7652174 C6.81950434,24.8664905 6.89911387,24.9860197 6.95730465,25.1236128 C7.01454769,25.2615902 7.04354831,25.4112899 7.04354831,25.5713668 C7.04354831,25.7322123 7.01454769,25.8817199 6.95730465,26.0195052 Z M11.1303606,26.0195052 C11.0727385,26.1567139 10.9933185,26.2764353 10.8909634,26.3777084 C10.7893664,26.4791737 10.669573,26.5583473 10.5327205,26.6156137 C10.3960574,26.6732645 10.2472634,26.7018977 10.0863384,26.7018977 C9.92541345,26.7018977 9.77699853,26.6732645 9.6399564,26.6156137 C9.50329337,26.5583473 9.38349998,26.4791737 9.2817135,26.3777084 C9.17954793,26.2764353 9.10012794,26.1565217 9.04212671,26.0195052 C8.98469412,25.8817199 8.95588305,25.7322123 8.95588305,25.5713668 C8.95588305,25.4112899 8.98450457,25.2615902 9.04212671,25.1236128 C9.0999384,24.9860197 9.17954793,24.8664905 9.2817135,24.7652174 C9.38331043,24.6645208 9.50310382,24.5851549 9.6399564,24.527312 C9.77680898,24.4700456 9.92541345,24.4414124 10.0863384,24.4414124 C10.2472634,24.4414124 10.3958679,24.4700456 10.5327205,24.527312 C10.6693835,24.5849628 10.7891769,24.6645208 10.8909634,24.7652174 C10.9933185,24.8664905 11.0725489,24.9860197 11.1303606,25.1236128 C11.1883618,25.2615902 11.2169834,25.4112899 11.2169834,25.5713668 C11.2169834,25.7322123 11.1883618,25.8817199 11.1303606,26.0195052 Z M5.29953087,22.7361038 C7.90105672,21.8965169 8.24868502,20.9053087 8.24868502,20.9053087 C8.24868502,20.9053087 8.7959058,21.8965169 10.6847368,22.5518136 C10.6847368,22.5518136 11.7281903,22.8992553 12.6982893,23.2541917 C12.7468132,23.3525823 12.7974222,23.450012 12.8404492,23.553399 C13.0112306,23.9609897 13.1266645,24.390872 13.1882671,24.8418929 L11.853291,24.8418929 C11.8504478,24.8340139 11.8476046,24.8257507 11.8443823,24.8178717 C11.7473345,24.5857314 11.6127565,24.3847226 11.4412169,24.2142686 C11.2694878,24.0436224 11.0685684,23.9104492 10.8380799,23.813596 C10.6074018,23.7169349 10.3572004,23.6685083 10.086528,23.6685083 C9.81623466,23.6685083 9.56584372,23.7169349 9.33535516,23.813596 C9.10448751,23.9104492 8.90356821,24.0436224 8.73183908,24.2142686 C8.56048903,24.3847226 8.4262901,24.5857314 8.32905274,24.8178717 C8.29815666,24.890896 8.27313652,24.9662263 8.25247595,25.0427096 L7.74714496,25.0427096 C7.72629484,24.9660341 7.70089561,24.890896 7.67018907,24.8178717 C7.57352035,24.5857314 7.43913188,24.3847226 7.26740274,24.2142686 C7.09605269,24.0436224 6.89456475,23.9104492 6.66426574,23.813596 C6.43377719,23.7169349 6.18338625,23.6685083 5.91290338,23.6685083 C5.64223096,23.6685083 5.39184002,23.7169349 5.16135147,23.813596 C4.93105246,23.9104492 4.72956452,24.0436224 4.55821447,24.2142686 C4.38648533,24.3847226 4.25247595,24.5857314 4.15542814,24.8178717 C4.15182675,24.8257507 4.14898356,24.8340139 4.14595081,24.8418929 L2.81097474,24.8418929 C2.87238781,24.390872 2.98801118,23.9609897 3.15898214,23.553399 C3.17926361,23.5053567 3.20390466,23.4611578 3.22532341,23.4138842 C4.1165711,23.1154456 5.29953087,22.7361038 5.29953087,22.7361038 Z M13.6935981,18.2935383 C12.9725631,17.5769397 12.1273753,17.0158059 11.1582239,16.6095604 C10.1890726,16.2031227 9.13652087,16 7.99981045,16 C6.86310003,16 5.81035872,16.2031227 4.84101786,16.6095604 C3.87186656,17.0158059 3.02667867,17.5771319 2.3054542,18.2935383 C1.58441928,19.0103291 1.01938113,19.8558732 0.611287495,20.8307471 C0.203952045,21.8061975 0,22.862551 0,24 C0,25.1380255 0.203952045,26.1936104 0.611666588,27.1692529 C1.01976022,28.1441268 1.58460882,28.9900552 2.30583329,29.7064617 C3.02705776,30.4232525 3.87224565,30.9845784 4.84139696,31.3906318 C5.81054826,31.7968773 6.86347913,32 8.00018955,32 C9.13671042,32 10.1892622,31.7968773 11.158603,31.3906318 C12.1277543,30.9845784 12.9729422,30.4230603 13.6939772,29.7064617 C14.4155807,28.9900552 14.9796711,28.144319 15.3883334,27.1692529 C15.7956689,26.1936104 16,25.1380255 16,24 C15.9996209,22.862551 15.7952898,21.8061975 15.3879543,20.8307471 C14.9794816,19.8560653 14.4153912,19.0103291 13.6935981,18.2935383 Z" id="Shape" fill="#F08521"></path>
            <path d="M10.0694688,14.4720634 C9.43410889,14.7382176 8.74453869,14.8710065 8.00018955,14.8710065 C7.25546131,14.8710065 6.56532247,14.7380255 5.9305312,14.4720634 C5.2955504,14.2053327 4.74188504,13.8380975 4.26915604,13.3680519 C3.79680614,12.8987749 3.42681135,12.3449436 3.15974032,11.7055969 C2.90119888,11.0887341 2.76889542,10.4209464 2.76017628,9.70434783 L4.01497417,9.70434783 C4.02824243,9.92495796 4.07506042,10.1315398 4.15618632,10.325054 C4.25304459,10.5573865 4.38724352,10.7585876 4.55897266,10.9290416 C4.7303227,11.0994956 4.93181064,11.2330531 5.16210965,11.3291376 C5.39259821,11.4265674 5.64298915,11.474994 5.91366156,11.474994 C6.18414443,11.474994 6.43453537,11.4265674 6.66502393,11.3291376 C6.89532294,11.2330531 7.09681088,11.0994956 7.26816092,10.9290416 C7.43989006,10.7585876 7.57427854,10.5573865 7.67094726,10.325054 C7.73520353,10.1717031 7.77804104,10.0095124 7.79945979,9.8388662 L8.20167749,9.8388662 C8.22328579,10.0095124 8.26574421,10.1717031 8.33000047,10.325054 C8.42704829,10.5573865 8.56143676,10.7585876 8.73278681,10.9290416 C8.90451595,11.0994956 9.10543525,11.2330531 9.3363029,11.3291376 C9.56679145,11.4265674 9.81718239,11.474994 10.0874757,11.474994 C10.3581481,11.474994 10.6083495,11.4265674 10.8390276,11.3291376 C11.0695162,11.2330531 11.2704355,11.0994956 11.4421646,10.9290416 C11.6137042,10.7585876 11.7482822,10.5573865 11.84533,10.325054 C11.9258873,10.1315398 11.9727053,9.92495796 11.9863527,9.70434783 L13.2407715,9.70434783 C13.2322419,10.4211386 13.0993698,11.0887341 12.841397,11.7055969 C12.5729991,12.3449436 12.2031939,12.8989671 11.7304649,13.3680519 C11.258115,13.8380975 10.7042601,14.2055249 10.0694688,14.4720634 Z M6.95730465,10.0195052 C6.89911387,10.1567139 6.81950434,10.2764353 6.71733877,10.3777084 C6.61574184,10.4791737 6.49613799,10.5583473 6.35890632,10.6156137 C6.22224328,10.6732645 6.07363882,10.7018977 5.91309293,10.7018977 C5.75235748,10.7018977 5.60375302,10.6732645 5.46690044,10.6156137 C5.32985831,10.5583473 5.21044401,10.4791737 5.1080889,10.3777084 C5.00649197,10.2764353 4.92669289,10.1565217 4.86926029,10.0195052 C4.81144861,9.88171991 4.78225845,9.73221235 4.78225845,9.5713668 C4.78225845,9.41128994 4.81125906,9.2615902 4.86926029,9.12361278 C4.92650334,8.9860197 5.00630242,8.86649051 5.1080889,8.76521739 C5.21044401,8.66452078 5.32966877,8.58515494 5.46690044,8.52731203 C5.60356347,8.47004564 5.75216794,8.44141244 5.91309293,8.44141244 C6.07363882,8.44141244 6.22224328,8.47004564 6.35890632,8.52731203 C6.49594844,8.58496277 6.61555229,8.66452078 6.71733877,8.76521739 C6.81950434,8.86649051 6.89911387,8.9860197 6.95730465,9.12361278 C7.01454769,9.2615902 7.04354831,9.41128994 7.04354831,9.5713668 C7.04354831,9.73221235 7.01454769,9.88171991 6.95730465,10.0195052 Z M11.1303606,10.0195052 C11.0727385,10.1567139 10.9933185,10.2764353 10.8909634,10.3777084 C10.7893664,10.4791737 10.669573,10.5583473 10.5327205,10.6156137 C10.3960574,10.6732645 10.2472634,10.7018977 10.0863384,10.7018977 C9.92541345,10.7018977 9.77699853,10.6732645 9.6399564,10.6156137 C9.50329337,10.5583473 9.38349998,10.4791737 9.2817135,10.3777084 C9.17954793,10.2764353 9.10012794,10.1565217 9.04212671,10.0195052 C8.98469412,9.88171991 8.95588305,9.73221235 8.95588305,9.5713668 C8.95588305,9.41128994 8.98450457,9.2615902 9.04212671,9.12361278 C9.0999384,8.9860197 9.17954793,8.86649051 9.2817135,8.76521739 C9.38331043,8.66452078 9.50310382,8.58515494 9.6399564,8.52731203 C9.77680898,8.47004564 9.92541345,8.44141244 10.0863384,8.44141244 C10.2472634,8.44141244 10.3958679,8.47004564 10.5327205,8.52731203 C10.6693835,8.58496277 10.7891769,8.66452078 10.8909634,8.76521739 C10.9933185,8.86649051 11.0725489,8.9860197 11.1303606,9.12361278 C11.1883618,9.2615902 11.2169834,9.41128994 11.2169834,9.5713668 C11.2169834,9.73221235 11.1883618,9.88171991 11.1303606,10.0195052 Z M5.29953087,6.73610377 C7.90105672,5.89651693 8.24868502,4.90530867 8.24868502,4.90530867 C8.24868502,4.90530867 8.7959058,5.89651693 10.6847368,6.5518136 C10.6847368,6.5518136 11.7281903,6.89925534 12.6982893,7.25419169 C12.7468132,7.35258227 12.7974222,7.45001201 12.8404492,7.55339899 C13.0112306,7.96098967 13.1266645,8.39087197 13.1882671,8.84189287 L11.853291,8.84189287 C11.8504478,8.83401393 11.8476046,8.82575066 11.8443823,8.81787173 C11.7473345,8.58573144 11.6127565,8.38472256 11.4412169,8.21426856 C11.2694878,8.04362239 11.0685684,7.9104492 10.8380799,7.81359596 C10.6074018,7.7169349 10.3572004,7.66850829 10.086528,7.66850829 C9.81623466,7.66850829 9.56584372,7.7169349 9.33535516,7.81359596 C9.10448751,7.9104492 8.90356821,8.04362239 8.73183908,8.21426856 C8.56048903,8.38472256 8.4262901,8.58573144 8.32905274,8.81787173 C8.29815666,8.89089599 8.27313652,8.96622628 8.25247595,9.04270958 L7.74714496,9.04270958 C7.72629484,8.96603411 7.70089561,8.89089599 7.67018907,8.81787173 C7.57352035,8.58573144 7.43913188,8.38472256 7.26740274,8.21426856 C7.09605269,8.04362239 6.89456475,7.9104492 6.66426574,7.81359596 C6.43377719,7.7169349 6.18338625,7.66850829 5.91290338,7.66850829 C5.64223096,7.66850829 5.39184002,7.7169349 5.16135147,7.81359596 C4.93105246,7.9104492 4.72956452,8.04362239 4.55821447,8.21426856 C4.38648533,8.38472256 4.25247595,8.58573144 4.15542814,8.81787173 C4.15182675,8.82575066 4.14898356,8.83401393 4.14595081,8.84189287 L2.81097474,8.84189287 C2.87238781,8.39087197 2.98801118,7.96098967 3.15898214,7.55339899 C3.17926361,7.50535671 3.20390466,7.46115782 3.22532341,7.41388422 C4.1165711,7.11544559 5.29953087,6.73610377 5.29953087,6.73610377 Z M13.6935981,2.29353831 C12.9725631,1.57693971 12.1273753,1.01580591 11.1582239,0.609560413 C10.1890726,0.203122748 9.13652087,0 7.99981045,0 C6.86310003,0 5.81035872,0.203122748 4.84101786,0.609560413 C3.87186656,1.01580591 3.02667867,1.57713188 2.3054542,2.29353831 C1.58441928,3.01032909 1.01938113,3.85587317 0.611287495,4.83074706 C0.203952045,5.80619745 0,6.86255104 0,8 C0,9.13802546 0.203952045,10.1936104 0.611666588,11.1692529 C1.01976022,12.1441268 1.58460882,12.9900552 2.30583329,13.7064617 C3.02705776,14.4232525 3.87224565,14.9845784 4.84139696,15.3906318 C5.81054826,15.7968773 6.86347913,16 8.00018955,16 C9.13671042,16 10.1892622,15.7968773 11.158603,15.3906318 C12.1277543,14.9845784 12.9729422,14.4230603 13.6939772,13.7064617 C14.4155807,12.9900552 14.9796711,12.144319 15.3883334,11.1692529 C15.7956689,10.1936104 16,9.13802546 16,8 C15.9996209,6.86255104 15.7952898,5.80619745 15.3879543,4.83074706 C14.9794816,3.85606534 14.4153912,3.01032909 13.6935981,2.29353831 Z" id="Shape-Copy" fill="#9B9B9B"></path>
        </g>
    </g>
</svg>