<?xml version="1.0" encoding="utf-8"?>
<!-- Generator: Adobe Illustrator 23.0.1, SVG Export Plug-In . SVG Version: 6.00 Build 0)  -->
<svg version="1.1" id="Layer_1" xmlns="http://www.w3.org/2000/svg" xmlns:xlink="http://www.w3.org/1999/xlink" x="0px" y="0px"
	 viewBox="0 0 140 22" style="enable-background:new 0 0 140 22;" xml:space="preserve">
<style type="text/css">
	.st0{fill:#EF8421;}
	.st1{fill:#F08321;}
</style>
<title>Smartfeed_Logo</title>
<g>
	<path class="st0" d="M133.4,15.7c-0.4-0.8-0.7-1.7-0.6-2.6c-0.1-0.9,0.2-1.8,0.6-2.6c0.4-0.6,1-0.9,1.7-0.9c0.7-0.1,1.5,0.2,2,0.8
		c0.5,0.8,0.7,1.8,0.6,2.7v0.3c0.1,0.9-0.2,1.7-0.6,2.4c-0.5,0.5-1.2,0.8-1.9,0.7C134.5,16.6,133.8,16.3,133.4,15.7 M137.6,16.8
		L137.6,16.8l0.5,1.3h1.7V3.9h-2.2v3.7c0,0.6,0.1,1.2,0.2,1.7h-0.1c-0.7-1-1.8-1.5-3-1.5c-1.2-0.1-2.3,0.5-3,1.4
		c-0.8,1.1-1.2,2.5-1.1,3.9c-0.1,1.4,0.3,2.7,1.1,3.9c0.7,0.9,1.8,1.4,3,1.4C135.8,18.4,137,17.8,137.6,16.8 M126.4,10.1
		c0.4,0.5,0.6,1.2,0.6,1.9h-4.6c0-0.7,0.3-1.4,0.7-1.9c0.4-0.4,1-0.7,1.6-0.6C125.4,9.4,126,9.6,126.4,10.1 M127.1,18.2
		c0.5-0.1,1.1-0.3,1.6-0.5v-1.8c-0.5,0.2-1.1,0.4-1.7,0.6c-0.5,0.1-1.1,0.2-1.7,0.2c-0.8,0-1.6-0.2-2.1-0.8
		c-0.5-0.6-0.8-1.4-0.8-2.3h6.7v-1.2c0.1-1.2-0.3-2.4-1.2-3.3c-0.8-0.8-2-1.3-3.2-1.2c-1.3-0.1-2.5,0.5-3.4,1.4
		c-0.9,1.1-1.3,2.5-1.2,3.9c-0.1,1.4,0.4,2.8,1.3,3.8c1,1,2.3,1.5,3.7,1.4C125.8,18.3,126.4,18.3,127.1,18.2 M116.2,10.1
		c0.4,0.5,0.6,1.2,0.6,1.9h-4.5c0-0.7,0.3-1.4,0.7-1.9c0.4-0.4,1-0.7,1.6-0.6C115.3,9.4,115.9,9.6,116.2,10.1 M116.9,18.2
		c0.6-0.1,1.1-0.3,1.6-0.5v-1.8c-0.5,0.2-1.1,0.4-1.7,0.6c-0.6,0.1-1.1,0.2-1.7,0.2c-0.8,0-1.6-0.2-2.1-0.8
		c-0.5-0.6-0.8-1.4-0.8-2.3h6.7v-1.2c0.1-1.2-0.3-2.4-1.2-3.3c-0.8-0.8-2-1.3-3.2-1.2c-1.3-0.1-2.5,0.5-3.4,1.4
		c-0.9,1.1-1.3,2.5-1.2,3.9c-0.1,1.4,0.4,2.8,1.4,3.8c1,1,2.3,1.5,3.7,1.4C115.7,18.3,116.3,18.3,116.9,18.2 M109.3,8h-2.5V7.4
		c0-0.5,0.1-1,0.3-1.4c0.3-0.3,0.7-0.5,1.1-0.5c0.5,0,1,0.1,1.5,0.3l0.6-1.6c-0.7-0.3-1.5-0.4-2.2-0.4c-0.9-0.1-1.9,0.3-2.6,0.9
		c-0.6,0.7-0.9,1.7-0.8,2.7V8H103v1.6h1.7v8.5h2.2V9.7h2.5V8z M99.1,16.2c-0.3-0.3-0.4-0.7-0.4-1.1V9.7h2.9V8h-2.9V5.8h-1.3
		l-0.7,2.1h-1.5v1.7h1.4v5.5c0,2.2,1,3.2,3.1,3.2c0.4,0,0.8,0,1.2-0.1c0.3-0.1,0.6-0.1,0.9-0.3v-1.6c-0.5,0.2-1,0.3-1.6,0.3
		C99.7,16.7,99.4,16.5,99.1,16.2 M91.2,8.4c-0.6,0.4-1,0.9-1.3,1.4h-0.1L89.5,8h-1.7v10.1H90v-5.3c0-0.8,0.3-1.6,0.8-2.2
		c0.5-0.6,1.3-0.9,2.1-0.8c0.4,0,0.8,0.1,1.2,0.2V7.9c-0.4-0.1-0.7-0.1-1.1-0.1C92.3,7.9,91.7,8,91.2,8.4 M79.8,16.3
		c-0.3-0.3-0.4-0.7-0.4-1.1c0-0.6,0.2-1.1,0.7-1.4c0.7-0.4,1.4-0.5,2.2-0.5l1.3-0.1v0.9c0,0.7-0.2,1.3-0.7,1.8
		c-0.5,0.5-1.2,0.7-1.9,0.7C80.6,16.7,80.2,16.6,79.8,16.3 M85.8,18.1v-6.8c0.1-1-0.3-2-1-2.6c-0.8-0.6-1.9-0.9-2.9-0.8
		c-0.6,0-1.2,0.1-1.8,0.2c-0.6,0.1-1.2,0.4-1.8,0.6l0.7,1.5c0.4-0.2,0.9-0.4,1.4-0.5c0.5-0.2,1-0.2,1.5-0.2c0.5,0,1,0.1,1.4,0.5
		c0.3,0.4,0.5,0.9,0.5,1.4V12L81.9,12c-1.2,0-2.5,0.3-3.5,0.9c-0.8,0.5-1.2,1.4-1.2,2.3c-0.1,0.8,0.3,1.7,0.8,2.3
		c0.6,0.6,1.5,0.9,2.3,0.8c0.6,0,1.3-0.1,1.9-0.3c0.6-0.3,1.1-0.7,1.5-1.3h0.1l0.4,1.4L85.8,18.1z M69.2,12.8
		c-0.1-0.8,0.1-1.7,0.6-2.4c0.4-0.5,1.1-0.8,1.8-0.8c0.5,0,1,0.2,1.4,0.6c0.3,0.5,0.5,1.1,0.5,1.7v6.3h2.2v-6.6c0.1-1-0.2-2-0.8-2.8
		c-0.7-0.7-1.7-1-2.6-0.9c-0.6,0-1.3,0.1-1.9,0.4c-0.5,0.3-1,0.7-1.3,1.2h-0.1c-0.5-1.1-1.5-1.6-3.1-1.6c-0.6,0-1.2,0.1-1.8,0.4
		c-0.5,0.2-0.9,0.6-1.2,1.1h-0.1L62.3,8h-1.7v10.2h2.2v-5c-0.1-0.9,0.1-1.9,0.6-2.7c0.4-0.6,1.1-0.9,1.8-0.8c0.5,0,1,0.2,1.4,0.6
		c0.3,0.5,0.5,1.1,0.4,1.7v6.3h2.2L69.2,12.8z M59,12.7c-0.3-0.5-0.6-0.9-1.1-1.3c-0.7-0.5-1.5-0.9-2.3-1.2C55,10,54.4,9.7,53.8,9.3
		c-0.3-0.2-0.6-0.4-0.8-0.7c-0.2-0.3-0.2-0.6-0.2-0.9c0-0.5,0.2-1,0.6-1.3c0.5-0.4,1.1-0.5,1.7-0.5c1.2,0,2.3,0.3,3.3,0.8l0.7-1.9
		c-1.3-0.6-2.6-0.9-4-0.9c-1.2-0.1-2.4,0.3-3.4,1c-0.8,0.7-1.3,1.7-1.2,2.8c0,0.9,0.3,1.7,0.8,2.4c0.7,0.8,1.7,1.4,2.7,1.8
		c0.9,0.3,1.7,0.7,2.5,1.3c0.4,0.3,0.6,0.8,0.6,1.3c0,0.5-0.2,1.1-0.6,1.4c-0.6,0.4-1.3,0.6-2,0.5c-0.7,0-1.4-0.1-2-0.3
		c-0.7-0.2-1.4-0.4-2-0.7v2.2c1.2,0.5,2.6,0.8,3.9,0.7c1.3,0.1,2.6-0.3,3.7-1.1c0.9-0.7,1.4-1.8,1.4-2.9
		C59.4,13.8,59.3,13.2,59,12.7"/>
	<path class="st0" d="M41.1,4.2c-1.8-1.7-4.1-2.7-6.6-2.7h-0.1c-2.5,0-4.9,1-6.7,2.8l-3.5,3.5l-0.8,0.8c-0.3,0.3-0.3,0.7,0,1l0,0
		c0.3,0.3,0.7,0.3,1,0c0,0,0,0,0,0l0.8-0.8l3.5-3.5c1.5-1.5,3.6-2.4,5.7-2.4c4.4,0,7.9,3.5,8,7.8c0,0,0,0.1,0,0.1
		c0,4.5-3.6,8.1-8.1,8.1h-0.1c-2.1,0-4.1-0.8-5.6-2.3c-1.4-1.4-4.4-4.4-5.6-5.7l0,0l-1-1c-1.2-1.2-4.2-4.3-5.6-5.6
		c-1.8-1.8-4.2-2.7-6.7-2.7c-5.2,0-9.5,4.3-9.5,9.5c0,5.2,4.1,9.4,9.3,9.4c0,0,0.1,0,0.1,0h0.1c2.5,0,4.9-1,6.7-2.8l3.5-3.5l0.8-0.8
		c0.3-0.3,0.3-0.7,0-1c0,0,0,0,0,0l0,0c-0.3-0.3-0.7-0.3-1,0l-0.8,0.8c-1.3,1.3-2.7,2.7-3.5,3.5c-1.5,1.5-3.6,2.4-5.7,2.4
		c-4.3,0.1-7.9-3.4-8-7.8c0-0.1,0-0.1,0-0.2c0-4.5,3.6-8.1,8.1-8.1h0.1c2.1,0,4.1,0.8,5.6,2.3c1.4,1.4,4.4,4.4,5.6,5.7l0,0l1,1
		c1.2,1.2,4.3,4.3,5.6,5.6c1.8,1.8,4.2,2.7,6.7,2.7c5.2-0.1,9.5-4.3,9.5-9.5C43.9,8.4,42.9,5.9,41.1,4.2z"/>
	<path class="st1" d="M16,8.5c-0.3-0.8-0.8-1.5-1.5-2.1c-0.6-0.6-1.3-1.1-2.1-1.4c-0.9-0.3-1.8-0.5-2.7-0.5C8.8,4.5,7.8,4.6,7,5
		C6.2,5.3,5.5,5.8,4.9,6.4C4.3,7,3.8,7.7,3.5,8.5c-0.7,1.7-0.7,3.6,0,5.3c0.3,0.8,0.8,1.5,1.4,2.1C5.5,16.5,6.2,17,7,17.3
		c0.9,0.4,1.8,0.5,2.7,0.5c0.9,0,1.8-0.2,2.7-0.5c0.8-0.3,1.5-0.8,2.1-1.4c0.6-0.6,1.1-1.3,1.5-2.1c0.4-0.8,0.5-1.7,0.5-2.6
		C16.5,10.2,16.3,9.3,16,8.5z M5.7,10.7c0.7-0.3,1.7-0.6,1.7-0.6c2.2-0.7,2.5-1.5,2.5-1.5c0.5,0.7,1.2,1.2,2.1,1.4
		c0,0,0.9,0.3,1.7,0.6c0,0.1,0.1,0.2,0.1,0.3c0.1,0.4,0.2,0.7,0.3,1.1H13l0,0c-0.1-0.2-0.2-0.4-0.3-0.5c-0.1-0.1-0.3-0.3-0.5-0.3
		c-0.2-0.1-0.4-0.1-0.6-0.1c-0.2,0-0.4,0-0.6,0.1c-0.2,0.1-0.4,0.2-0.5,0.3c-0.1,0.1-0.3,0.3-0.3,0.5c0,0.1,0,0.1-0.1,0.2H9.5
		c0-0.1,0-0.1-0.1-0.2c-0.1-0.2-0.2-0.4-0.3-0.5C9,11.2,8.8,11.1,8.6,11c-0.2-0.1-0.4-0.1-0.6-0.1c-0.2,0-0.4,0-0.6,0.1
		c-0.2,0.1-0.4,0.2-0.5,0.3c-0.1,0.1-0.3,0.3-0.3,0.5l0,0H5.3C5.4,11.5,5.5,11.1,5.7,10.7C5.6,10.7,5.7,10.7,5.7,10.7z M12.4,12.5
		c0,0.1,0,0.3-0.1,0.4c0,0.1-0.1,0.2-0.2,0.3c-0.1,0.1-0.2,0.1-0.3,0.2c-0.2,0.1-0.5,0.1-0.8,0c-0.1-0.1-0.2-0.1-0.3-0.2
		c-0.1-0.1-0.2-0.2-0.2-0.3c0-0.1-0.1-0.2-0.1-0.4c0-0.1,0-0.3,0.1-0.4c0.1-0.1,0.1-0.2,0.2-0.3c0.1-0.1,0.2-0.2,0.3-0.2
		c0.2-0.1,0.5-0.1,0.8,0c0.1,0,0.2,0.1,0.3,0.2c0.1,0.1,0.1,0.2,0.2,0.3C12.4,12.2,12.4,12.3,12.4,12.5z M8.9,12.5
		c0,0.1,0,0.3-0.1,0.4c0,0.1-0.1,0.2-0.2,0.3c-0.1,0.1-0.2,0.1-0.3,0.2c-0.2,0.1-0.5,0.1-0.8,0c-0.1-0.1-0.2-0.1-0.3-0.2
		c-0.1-0.1-0.2-0.2-0.2-0.3C7,12.7,7,12.6,7,12.5c0-0.1,0-0.3,0.1-0.4c0-0.1,0.1-0.2,0.2-0.3c0.1-0.1,0.2-0.2,0.3-0.2
		c0.2-0.1,0.5-0.1,0.8,0c0.1,0,0.2,0.1,0.3,0.2c0.1,0.1,0.1,0.2,0.2,0.3C8.9,12.2,8.9,12.3,8.9,12.5z M12.9,15.6
		c-0.4,0.4-0.9,0.7-1.4,0.9c-0.6,0.2-1.2,0.3-1.8,0.3c-1.2,0-2.3-0.4-3.2-1.3c-0.4-0.4-0.7-0.9-0.9-1.4c-0.2-0.5-0.3-1.1-0.3-1.7
		h1.1c0,0.2,0,0.4,0.1,0.5c0.1,0.2,0.2,0.4,0.3,0.5c0.1,0.1,0.3,0.3,0.5,0.3C7.5,14,7.7,14,7.9,14c0.2,0,0.4,0,0.6-0.1
		c0.2-0.1,0.4-0.2,0.5-0.3c0.1-0.1,0.3-0.3,0.3-0.5c0.1-0.1,0.1-0.3,0.1-0.4h0.3c0,0.1,0.1,0.3,0.1,0.4c0.1,0.2,0.2,0.4,0.3,0.5
		c0.1,0.1,0.3,0.3,0.5,0.3C11,14,11.3,14,11.5,14c0.2,0,0.4,0,0.6-0.1c0.2-0.1,0.4-0.2,0.5-0.3c0.1-0.1,0.3-0.3,0.3-0.5
		c0.1-0.2,0.1-0.3,0.1-0.5h1.1c0,0.6-0.1,1.1-0.3,1.7C13.6,14.8,13.3,15.2,12.9,15.6z"/>
</g>
</svg>
