<svg id="Layer_1" data-name="Layer 1" xmlns="http://www.w3.org/2000/svg" viewBox="0 0 84.18 25.12"><defs><style>.cls-1{fill:#7d848a;}.cls-2{fill:#ef8421;}</style></defs><title>sphere logo</title><path class="cls-1" d="M84.18,15V12a1.66,1.66,0,0,0-.41-1.25,1.7,1.7,0,0,0-1.22-.39,1.9,1.9,0,0,0-.84.18,1.4,1.4,0,0,0-.58.51h0L81,10.47h-.55V15h.68V12.6a1.92,1.92,0,0,1,.33-1.25,1.29,1.29,0,0,1,1-.38,1,1,0,0,1,.78.27,1.16,1.16,0,0,1,.25.82V15ZM78.37,9.6a.41.41,0,0,0,.57,0,.45.45,0,0,0,.12-.34.44.44,0,0,0-.12-.34.43.43,0,0,0-.57,0,.45.45,0,0,0-.11.34.46.46,0,0,0,.11.34m.62.87h-.68V15H79Zm-4.74,3.81a.7.7,0,0,1-.22-.56.76.76,0,0,1,.36-.69,2.46,2.46,0,0,1,1.17-.25l.68,0v.4a1.29,1.29,0,0,1-.36,1,1.38,1.38,0,0,1-1,.35.93.93,0,0,1-.62-.19m2.66.67V11.89a1.48,1.48,0,0,0-.39-1.14,1.71,1.71,0,0,0-1.19-.36,3.27,3.27,0,0,0-1.52.39l.21.52A3,3,0,0,1,75.3,11a.93.93,0,0,1,.72.25,1.13,1.13,0,0,1,.23.78v.28l-.76,0q-2.17.06-2.17,1.42a1.25,1.25,0,0,0,.38,1,1.5,1.5,0,0,0,1,.34,2,2,0,0,0,.83-.15,1.89,1.89,0,0,0,.67-.57h0l.14.64Zm-5.41-4.33a2,2,0,0,0-.6.68h0l-.08-.83h-.56V15h.68v-2.4a1.61,1.61,0,0,1,.39-1.1,1.2,1.2,0,0,1,.93-.44,2.31,2.31,0,0,1,.49.06l.09-.63a2.71,2.71,0,0,0-.54,0,1.36,1.36,0,0,0-.77.24M68,11.39a2.25,2.25,0,0,1,.31,1.3A2.34,2.34,0,0,1,68,14a1,1,0,0,1-.93.46,1.2,1.2,0,0,1-1-.41,2.24,2.24,0,0,1-.32-1.35,2.25,2.25,0,0,1,.31-1.34,1.19,1.19,0,0,1,1-.4,1.09,1.09,0,0,1,.95.43m-2.26-.33h0q0-.41,0-.93V8.86h-.68V15h.49l.14-.58h0a1.51,1.51,0,0,0,.61.5,2,2,0,0,0,.8.16,1.66,1.66,0,0,0,1.37-.61,2.66,2.66,0,0,0,.49-1.72A2.65,2.65,0,0,0,68.57,11a1.67,1.67,0,0,0-1.37-.6,1.61,1.61,0,0,0-1.41.67m-2.72,3.19a.91.91,0,0,1-.19-.62V11h1.3v-.53h-1.3v-1h-.39l-.29,1-.64.28V11h.64v2.67Q62.2,15,63.5,15a2.35,2.35,0,0,0,.39,0,1.22,1.22,0,0,0,.33-.09v-.52l-.27.06-.35,0a.67.67,0,0,1-.53-.22M57,10.47V13.4a1.66,1.66,0,0,0,.41,1.24A1.72,1.72,0,0,0,58.6,15a1.94,1.94,0,0,0,.84-.18,1.35,1.35,0,0,0,.58-.51h0l.1.6h.56V10.47H60v2.35a1.94,1.94,0,0,1-.33,1.26,1.27,1.27,0,0,1-1,.39,1,1,0,0,1-.78-.27,1.17,1.17,0,0,1-.25-.82V10.47Zm-5-.34a1.84,1.84,0,0,1,1.51-.63,1.81,1.81,0,0,1,1.49.62,2.85,2.85,0,0,1,.5,1.83A2.88,2.88,0,0,1,55,13.8a2.11,2.11,0,0,1-3,0A2.83,2.83,0,0,1,51.46,12,2.81,2.81,0,0,1,52,10.13M55.5,9.7a2.55,2.55,0,0,0-2-.82,2.6,2.6,0,0,0-2,.8,3.28,3.28,0,0,0-.72,2.26,3.32,3.32,0,0,0,.72,2.28,2.58,2.58,0,0,0,2,.81,2.55,2.55,0,0,0,2-.82A3.29,3.29,0,0,0,56.22,12,3.29,3.29,0,0,0,55.5,9.7M45.63,15l-.25.64a1,1,0,0,1-1,.78,2.42,2.42,0,0,1-.5,0v.54a2.76,2.76,0,0,0,.61.07,1.42,1.42,0,0,0,.94-.32,2.55,2.55,0,0,0,.67-1.07L48,10.47H47.3q-.94,2.6-1.11,3.1t-.22.71h0a9.64,9.64,0,0,0-.4-1.26l-1-2.56h-.73Zm-3.29-3.58a2.25,2.25,0,0,1,.31,1.3A2.35,2.35,0,0,1,42.34,14a1,1,0,0,1-.93.46,1.2,1.2,0,0,1-1-.41,2.24,2.24,0,0,1-.31-1.35,2.25,2.25,0,0,1,.31-1.34,1.19,1.19,0,0,1,1-.4,1.09,1.09,0,0,1,.95.43m-2.26-.33h0q0-.41,0-.93V8.86H39.4V15h.49l.14-.58h0a1.51,1.51,0,0,0,.61.5,2,2,0,0,0,.8.16,1.66,1.66,0,0,0,1.37-.61,2.66,2.66,0,0,0,.49-1.72A2.65,2.65,0,0,0,42.86,11a1.67,1.67,0,0,0-1.37-.6,1.61,1.61,0,0,0-1.41.67" transform="translate(0 0)"/><path class="cls-2" d="M35.38,15.1a3,3,0,0,0,.71-.25v-1a3.94,3.94,0,0,1-.78.28,3.52,3.52,0,0,1-.8.09,1.13,1.13,0,0,1-.84-.3,1.22,1.22,0,0,1-.32-.85h3v-.62a2.13,2.13,0,0,0-.55-1.55,2,2,0,0,0-1.54-.56,2.08,2.08,0,0,0-1.62.64,2.59,2.59,0,0,0-.59,1.81,2.34,2.34,0,0,0,.63,1.76,2.4,2.4,0,0,0,1.76.62,4.51,4.51,0,0,0,.92-.08m-.46-3.59a1.06,1.06,0,0,1,.25.73H33.38a1.19,1.19,0,0,1,.26-.73.81.81,0,0,1,.63-.26.83.83,0,0,1,.64.26m-4.65-.92a1.74,1.74,0,0,0-.59.63h-.06l-.19-.78h-1V15.1h1.27V12.73a1.13,1.13,0,0,1,.34-.87,1.34,1.34,0,0,1,.95-.31,1.45,1.45,0,0,1,.38,0l.1-1.19a2.05,2.05,0,0,0-.43,0,1.45,1.45,0,0,0-.8.24M26.46,15.1a3,3,0,0,0,.71-.25v-1a3.94,3.94,0,0,1-.78.28,3.52,3.52,0,0,1-.8.09,1.13,1.13,0,0,1-.84-.3,1.22,1.22,0,0,1-.32-.85h3v-.62a2.13,2.13,0,0,0-.55-1.55,2,2,0,0,0-1.54-.56,2.08,2.08,0,0,0-1.62.64,2.58,2.58,0,0,0-.59,1.81,2.34,2.34,0,0,0,.63,1.76,2.4,2.4,0,0,0,1.76.62,4.5,4.5,0,0,0,.92-.08M26,11.52a1.06,1.06,0,0,1,.25.73H24.46a1.18,1.18,0,0,1,.26-.73.81.81,0,0,1,.63-.26.83.83,0,0,1,.64.26m-3.88.55a1.76,1.76,0,0,0-.42-1.27,1.65,1.65,0,0,0-1.25-.44A1.47,1.47,0,0,0,19.1,11H19l0-.37q0-.57,0-.73V8.62H17.82V15.1h1.27V12.91a2.22,2.22,0,0,1,.24-1.17.85.85,0,0,1,.77-.36q.75,0,.75,1V15.1h1.27Zm-6.85-.35a2,2,0,0,1,.21,1q0,1.41-.85,1.41a.79.79,0,0,1-.71-.32,2,2,0,0,1-.22-1.07v-.14a1.65,1.65,0,0,1,.23-1,.8.8,0,0,1,.69-.29.72.72,0,0,1,.66.34m.66,3.18a1.82,1.82,0,0,0,.62-.84,3.49,3.49,0,0,0,.22-1.3A3,3,0,0,0,16.31,11,1.51,1.51,0,0,0,15,10.36,1.47,1.47,0,0,0,13.7,11h-.06l-.18-.6h-1v6.71H13.7V15.26q0-.09-.07-.68h.07a1.54,1.54,0,0,0,1.29.6,1.6,1.6,0,0,0,.95-.29m-4.62-1.78a1.23,1.23,0,0,0-.37-.44,3.7,3.7,0,0,0-.8-.41,4.84,4.84,0,0,1-.79-.37.36.36,0,0,1-.18-.3c0-.2.19-.3.56-.3a2.05,2.05,0,0,1,.62.1q.3.1.65.25l.38-.92a3.88,3.88,0,0,0-1.64-.37,2.35,2.35,0,0,0-1.37.34,1.11,1.11,0,0,0-.48,1,1.44,1.44,0,0,0,.12.61,1.16,1.16,0,0,0,.37.44,3.74,3.74,0,0,0,.79.42l.6.28a1.33,1.33,0,0,1,.32.21.34.34,0,0,1,.09.24q0,.4-.69.4a3.23,3.23,0,0,1-.78-.11,4.43,4.43,0,0,1-.8-.28v1a3.23,3.23,0,0,0,.67.2,4.67,4.67,0,0,0,.87.07,2.46,2.46,0,0,0,1.49-.37,1.28,1.28,0,0,0,.5-1.09,1.35,1.35,0,0,0-.12-.6" transform="translate(0 0)"/><path class="cls-2" d="M12.39,25.12a12.13,12.13,0,0,1-5-1.06A12.58,12.58,0,0,1,0,12.56,12.63,12.63,0,0,1,3.22,4.12,12.48,12.48,0,0,1,7.57,1a12.14,12.14,0,0,1,4.82-1,12.32,12.32,0,0,1,9.25,4.21L21,4.84A11.41,11.41,0,0,0,12.39.94a11.25,11.25,0,0,0-4.46.91,11.56,11.56,0,0,0-4,2.9A11.77,11.77,0,0,0,2,17.41,11.55,11.55,0,0,0,7.76,23.2a11.34,11.34,0,0,0,10.88-.9,11.62,11.62,0,0,0,4-4.64l.83.41a12.54,12.54,0,0,1-4.37,5,12.21,12.21,0,0,1-6.76,2" transform="translate(0 0)"/><path class="cls-2" d="M12.36,23a10.19,10.19,0,0,1-7-2.78,10.55,10.55,0,0,1-3.31-7.67h.89a9.64,9.64,0,0,0,3,7,9.32,9.32,0,0,0,13-.26l.63.63A10.16,10.16,0,0,1,12.36,23" transform="translate(0 0)"/><path class="cls-2" d="M20.39,7.58a9.57,9.57,0,0,0-3.07-3.13,9.3,9.3,0,0,0-5-1.43v-.9a10.17,10.17,0,0,1,5.43,1.57,10.48,10.48,0,0,1,3.35,3.42Z" transform="translate(0 0)"/></svg>